# xmcd CD database file
#
# Track frame offsets:
#	300
#	17138
#	35531
#	53322
#	73733
#	86904
#	113578
#	127866
#	146530
#	161530
#	181711
#
# Disc length: 2752 seconds
#
# Revision: 0
# Processed by: cddbd v1.4PL0 Copyright (c) Steve Scherf et al.
# Submitted via: CDex 1.50Beta7
#
DISCID=870abc0b
DTITLE=Sergey Kashin - ON GIANTS' SHOULDERS...
DYEAR=2001
DGENRE=Blues
TTITLE0=SOMEDAY AFTER AWHILE
TTITLE1=FURTHER ON UP THE ROAD
TTITLE2=ALONE
TTITLE3=FIVE LONG YEARS
TTITLE4=IT HURTS ME TOO
TTITLE5=THREE O'CLOCK BLUES
TTITLE6=EVERY DAY I HAVE THE BLUES
TTITLE7=EARLY IN THE MORNING
TTITLE8=TROUBLE IN MIND
TTITLE9=DOUBLE TROUBLE
TTITLE10=BLACK CAT BONE
EXTD=YEAR: 2001
EXTT0=
EXTT1=
EXTT2=
EXTT3=
EXTT4=
EXTT5=
EXTT6=
EXTT7=
EXTT8=
EXTT9=
EXTT10=
PLAYORDER=
